<?xml version="1.0" encoding="UTF-8"?>
<svg version="1.1" xmlns="http://www.w3.org/2000/svg" width="90" height="90">
<path d="M0 0 C4.43170173 1.51896368 8.03024076 3.92639809 11.8125 6.625 C12.40998047 7.04523437 13.00746094 7.46546875 13.62304688 7.8984375 C15.08520565 8.92779728 16.54304899 9.9632823 18 11 C16.89962823 14.30111531 16.45494288 14.65501001 13.69140625 16.48046875 C13.02689453 16.92197266 12.36238281 17.36347656 11.67773438 17.81835938 C10.97970703 18.27017578 10.28167969 18.72199219 9.5625 19.1875 C8.86833984 19.65091797 8.17417969 20.11433594 7.45898438 20.59179688 C2.27389774 24 2.27389774 24 0 24 C0 21.03 0 18.06 0 15 C-9.23768307 16.10128962 -13.51039686 17.70510382 -19.4375 25 C-21.15347195 27.78858281 -21.15347195 27.78858281 -21.125 30.375 C-18.77579468 35.85647907 -15.79322883 39.98927102 -10.5625 42.9375 C-7.02711861 43.99191199 -3.66729369 44.62578636 0 45 C0 42.03 0 39.06 0 36 C4.43170173 37.51896368 8.03024076 39.92639809 11.8125 42.625 C12.40998047 43.04523437 13.00746094 43.46546875 13.62304688 43.8984375 C15.08520565 44.92779728 16.54304899 45.9632823 18 47 C16.89962823 50.30111531 16.45494288 50.65501001 13.69140625 52.48046875 C13.02689453 52.92197266 12.36238281 53.36347656 11.67773438 53.81835938 C10.97970703 54.27017578 10.28167969 54.72199219 9.5625 55.1875 C8.86833984 55.65091797 8.17417969 56.11433594 7.45898438 56.59179688 C2.27389774 60 2.27389774 60 0 60 C0 57.03 0 54.06 0 51 C-0.85722656 51.04640625 -1.71445312 51.0928125 -2.59765625 51.140625 C-14.46868555 51.51535873 -14.46868555 51.51535873 -20 47 C-26 40.22321429 -26 40.22321429 -26 37 C-26.66 37 -27.32 37 -28 37 C-28.226875 37.70125 -28.45375 38.4025 -28.6875 39.125 C-31.3984452 45.06326092 -34.96981254 48.60338703 -41 51 C-43.8076576 51.33437655 -46.55288801 51.28701389 -49.375 51.1875 C-50.11105469 51.17396484 -50.84710938 51.16042969 -51.60546875 51.14648438 C-53.40396743 51.11144869 -55.20208422 51.05765288 -57 51 C-58.125 47.25 -58.125 47.25 -57 45 C-54.78092825 44.65611736 -52.54797518 44.4000687 -50.3125 44.1875 C-42.1477644 43.11820975 -39.70128416 41.32465742 -34.5625 35 C-32.84652805 32.21141719 -32.84652805 32.21141719 -32.875 29.625 C-35.18615064 24.23231517 -38.17995883 20.08502454 -43.25 17.0625 C-47.82981322 15.76488626 -52.25988707 15.27658607 -57 15 C-58.125 11.25 -58.125 11.25 -57 9 C-39.47118024 8.24245197 -39.47118024 8.24245197 -34 13 C-28 19.82247191 -28 19.82247191 -28 23 C-27.34 23 -26.68 23 -26 23 C-25.773125 22.29875 -25.54625 21.5975 -25.3125 20.875 C-23.24267653 16.34110097 -20.48169756 13.11127317 -16.5 10.125 C-11.06519685 8.37809899 -5.66023882 8.77325453 0 9 C0 6.03 0 3.06 0 0 Z " fill="#000000" transform="translate(63,15)"/>
</svg>
