<?xml version="1.0" encoding="UTF-8"?>
<svg id="Layer_1" data-name="Layer 1" xmlns="http://www.w3.org/2000/svg" xmlns:xlink="http://www.w3.org/1999/xlink" viewBox="0 0 1080 1350">
  <defs>
    <style>
      .cls-1 {
        fill: url(#linear-gradient-2);
      }

      .cls-2 {
        fill: url(#linear-gradient-17);
      }

      .cls-3 {
        fill: url(#linear-gradient-15);
      }

      .cls-4 {
        fill: url(#linear-gradient-18);
      }

      .cls-5 {
        fill: url(#linear-gradient-14);
      }

      .cls-6 {
        fill: url(#linear-gradient-20);
      }

      .cls-7 {
        fill: url(#linear-gradient-6);
      }

      .cls-8 {
        fill: url(#linear-gradient-11);
      }

      .cls-9 {
        fill: url(#linear-gradient-10);
      }

      .cls-10 {
        fill: url(#linear-gradient-16);
      }

      .cls-11 {
        fill: url(#linear-gradient-5);
      }

      .cls-12 {
        clip-path: url(#clippath);
      }

      .cls-13 {
        fill: none;
      }

      .cls-14 {
        fill: url(#linear-gradient-7);
      }

      .cls-15 {
        fill: url(#linear-gradient-9);
      }

      .cls-16 {
        fill: url(#linear-gradient-3);
      }

      .cls-17 {
        fill: url(#linear-gradient);
      }

      .cls-18 {
        fill: url(#linear-gradient-19);
      }

      .cls-19 {
        fill: url(#linear-gradient-4);
      }

      .cls-20 {
        fill: url(#linear-gradient-8);
      }

      .cls-21 {
        fill: url(#linear-gradient-12);
      }

      .cls-22 {
        fill: url(#linear-gradient-13);
      }
    </style>
    <clipPath id="clippath">
      <rect class="cls-13" width="1080" height="1350"/>
    </clipPath>
    <linearGradient id="linear-gradient" x1="1063.42" y1="-4195.95" x2="1063.42" y2="-3144.5" gradientTransform="translate(-1026.84 3700.72)" gradientUnits="userSpaceOnUse">
      <stop offset="0" stop-color="#0b273d"/>
      <stop offset=".47" stop-color="#c091f3"/>
      <stop offset=".75" stop-color="#b0e394"/>
      <stop offset="1" stop-color="#004d9f"/>
    </linearGradient>
    <linearGradient id="linear-gradient-2" x1="978.45" y1="-4346.49" x2="978.45" y2="-3020.75" gradientTransform="translate(-856.9 3700.72)" xlink:href="#linear-gradient"/>
    <linearGradient id="linear-gradient-3" x1="883.68" y1="-4478.75" x2="883.68" y2="-2912.04" gradientTransform="translate(-667.36 3700.72)" xlink:href="#linear-gradient"/>
    <linearGradient id="linear-gradient-4" x1="772.57" y1="-4658.01" x2="772.57" y2="-2764.69" gradientTransform="translate(-445.13 3700.72)" xlink:href="#linear-gradient"/>
    <linearGradient id="linear-gradient-5" x1="636.95" y1="-4802.67" x2="636.95" y2="-2645.77" gradientTransform="translate(-173.89 3700.72)" xlink:href="#linear-gradient"/>
    <linearGradient id="linear-gradient-6" x1="1063.42" y1="-5382.23" x2="1063.42" y2="-4330.78" gradientTransform="translate(-1026.84 6073.28)" xlink:href="#linear-gradient"/>
    <linearGradient id="linear-gradient-7" x1="978.45" y1="-5532.77" x2="978.45" y2="-4207.03" gradientTransform="translate(-856.9 6073.28)" xlink:href="#linear-gradient"/>
    <linearGradient id="linear-gradient-8" x1="883.68" y1="-5665.03" x2="883.68" y2="-4098.32" gradientTransform="translate(-667.36 6073.28)" xlink:href="#linear-gradient"/>
    <linearGradient id="linear-gradient-9" x1="772.57" y1="-5844.28" x2="772.57" y2="-3950.97" gradientTransform="translate(-445.13 6073.28)" xlink:href="#linear-gradient"/>
    <linearGradient id="linear-gradient-10" x1="636.95" y1="-5988.95" x2="636.95" y2="-3832.05" gradientTransform="translate(-173.89 6073.28)" xlink:href="#linear-gradient"/>
    <linearGradient id="linear-gradient-11" x1="-337.76" y1="1832.57" x2="-337.76" y2="2884.02" gradientTransform="translate(1381.18 -1141.52)" xlink:href="#linear-gradient"/>
    <linearGradient id="linear-gradient-12" x1="-422.73" y1="1682.03" x2="-422.73" y2="3007.77" gradientTransform="translate(1381.18 -1141.52)" xlink:href="#linear-gradient"/>
    <linearGradient id="linear-gradient-13" x1="-517.5" y1="1549.77" x2="-517.5" y2="3116.48" gradientTransform="translate(1381.18 -1141.52)" xlink:href="#linear-gradient"/>
    <linearGradient id="linear-gradient-14" x1="-628.61" y1="1370.52" x2="-628.61" y2="3263.83" gradientTransform="translate(1381.18 -1141.52)" xlink:href="#linear-gradient"/>
    <linearGradient id="linear-gradient-15" x1="-764.24" y1="1225.85" x2="-764.24" y2="3382.75" gradientTransform="translate(1381.18 -1141.52)" xlink:href="#linear-gradient"/>
    <linearGradient id="linear-gradient-16" x1="-337.76" y1="646.29" x2="-337.76" y2="1697.74" gradientTransform="translate(1381.18 -1141.52)" xlink:href="#linear-gradient"/>
    <linearGradient id="linear-gradient-17" x1="-422.73" y1="495.75" x2="-422.73" y2="1821.49" gradientTransform="translate(1381.18 -1141.52)" xlink:href="#linear-gradient"/>
    <linearGradient id="linear-gradient-18" x1="-517.5" y1="363.49" x2="-517.5" y2="1930.2" gradientTransform="translate(1381.18 -1141.52)" xlink:href="#linear-gradient"/>
    <linearGradient id="linear-gradient-19" x1="-628.61" y1="184.24" x2="-628.61" y2="2077.55" gradientTransform="translate(1381.18 -1141.52)" xlink:href="#linear-gradient"/>
    <linearGradient id="linear-gradient-20" x1="-764.24" y1="39.57" x2="-764.24" y2="2196.47" gradientTransform="translate(1381.18 -1141.52)" xlink:href="#linear-gradient"/>
  </defs>
  <g class="cls-12">
    <g>
      <g>
        <rect class="cls-17" x="-1" y="-517.82" width="75.16" height="1199.35" transform="translate(73.16 163.72) rotate(180)"/>
        <rect class="cls-1" x="74.16" y="-674.25" width="94.77" height="1512.23" transform="translate(243.1 163.72) rotate(180)"/>
        <rect class="cls-16" x="160.32" y="-811.68" width="112" height="1787.08" transform="translate(432.64 163.72) rotate(180)"/>
        <rect class="cls-19" x="259.76" y="-997.96" width="135.34" height="2159.63" transform="translate(654.87 163.72) rotate(180)"/>
        <rect class="cls-11" x="385.96" y="-1148.28" width="154.19" height="2460.29" transform="translate(926.11 163.72) rotate(180)"/>
        <rect class="cls-7" x="-1" y="668.46" width="75.16" height="1199.35" transform="translate(73.16 2536.28) rotate(180)"/>
        <rect class="cls-14" x="74.16" y="512.03" width="94.77" height="1512.23" transform="translate(243.1 2536.28) rotate(180)"/>
        <rect class="cls-20" x="160.32" y="374.6" width="112" height="1787.08" transform="translate(432.64 2536.28) rotate(180)"/>
        <rect class="cls-15" x="259.76" y="188.32" width="135.34" height="2159.63" transform="translate(654.87 2536.28) rotate(180)"/>
        <rect class="cls-9" x="385.96" y="38" width="154.19" height="2460.29" transform="translate(926.11 2536.28) rotate(180)"/>
      </g>
      <g>
        <rect class="cls-8" x="1005.84" y="668.46" width="75.16" height="1199.35"/>
        <rect class="cls-21" x="911.06" y="512.03" width="94.77" height="1512.23"/>
        <rect class="cls-22" x="807.68" y="374.6" width="112" height="1787.08"/>
        <rect class="cls-5" x="684.89" y="188.32" width="135.34" height="2159.63"/>
        <rect class="cls-3" x="539.85" y="38" width="154.19" height="2460.29"/>
        <rect class="cls-10" x="1005.84" y="-517.82" width="75.16" height="1199.35"/>
        <rect class="cls-2" x="911.06" y="-674.25" width="94.77" height="1512.23"/>
        <rect class="cls-4" x="807.68" y="-811.68" width="112" height="1787.08"/>
        <rect class="cls-18" x="684.89" y="-997.96" width="135.34" height="2159.63"/>
        <rect class="cls-6" x="539.85" y="-1148.28" width="154.19" height="2460.29"/>
      </g>
    </g>
  </g>
</svg>